<?xml version="1.0" encoding="utf-8"?>
<!-- Generator: Fusion 360, Shaper Origin Export Add-In, Version 1.7.0  -->
<svg xmlns="http://www.w3.org/2000/svg" xmlns:xlink="http://www.w3.org/1999/xlink" xmlns:shaper="http://www.shapertools.com/namespaces/shaper" shaper:fusionaddin="version:1.7.0" width="9.4cm" height="4cm" version="1.1" x="0cm" y="0cm" viewBox="0 0 9.4 4" enable-background="new 0 0 9.4 4" xml:space="preserve"><path d="M4.7,-1.5 L4.7,1.5 A0.5,0.5 0 0,1 4.2,2 L-4.2,2 A0.5,0.5 90 0,1 -4.7,1.5 L-4.7,-1.5 A0.5,0.5 180 0,1 -4.2,-2 L4.2,-2 A0.5,0.5 270 0,1 4.7,-1.5z" transform="matrix(1,0,0,-1,4.7,2)" fill="rgb(0,0,0)" shaper:cutDepth="0.5cm" stroke-linecap="round" stroke-linejoin="round" /><path d="M1.595,0.95 a0.155,0.155 0 1,1 0.31,0 a0.155,0.155 0 1,1 -0.31,0z" transform="matrix(1,0,0,-1,4.7,2)" fill="rgb(255,255,255)" stroke="rgb(0,0,0)" stroke-width="0.0010cm" stroke-linecap="round" stroke-linejoin="round" shaper:cutDepth="0.5cm" /><path d="M-0.155,-1.5 a0.155,0.155 0 1,1 0.31,0 a0.155,0.155 0 1,1 -0.31,0z" transform="matrix(1,0,0,-1,4.7,2)" fill="rgb(255,255,255)" stroke="rgb(0,0,0)" stroke-width="0.0010cm" stroke-linecap="round" stroke-linejoin="round" shaper:cutDepth="0.5cm" /><path d="M-3.7,-1.25 L-3.7,1.25 A0.25,0.25 0 0,1 -4.2,1.25 L-4.2,-1.25 A0.25,0.25 180 0,1 -3.7,-1.25z" transform="matrix(1,0,0,-1,4.7,2)" fill="rgb(255,255,255)" stroke="rgb(0,0,0)" stroke-width="0.0010cm" stroke-linecap="round" stroke-linejoin="round" shaper:cutDepth="0.5cm" /><path d="M-0.155,1.5 a0.155,0.155 0 1,1 0.31,0 a0.155,0.155 0 1,1 -0.31,0z" transform="matrix(1,0,0,-1,4.7,2)" fill="rgb(255,255,255)" stroke="rgb(0,0,0)" stroke-width="0.0010cm" stroke-linecap="round" stroke-linejoin="round" shaper:cutDepth="0.5cm" /><path d="M1.45,0 a0.3,0.3 0 1,1 0.6,0 a0.3,0.3 0 1,1 -0.6,0z" transform="matrix(1,0,0,-1,4.7,2)" fill="rgb(255,255,255)" stroke="rgb(0,0,0)" stroke-width="0.0010cm" stroke-linecap="round" stroke-linejoin="round" shaper:cutDepth="0.5cm" /><path d="M4.2,-1.25 L4.2,1.25 A0.25,0.25 0 0,1 3.7,1.25 L3.7,-1.25 A0.25,0.25 180 0,1 4.2,-1.25z" transform="matrix(1,0,0,-1,4.7,2)" fill="rgb(255,255,255)" stroke="rgb(0,0,0)" stroke-width="0.0010cm" stroke-linecap="round" stroke-linejoin="round" shaper:cutDepth="0.5cm" /><path d="M0.775,-0.8 a0.175,0.175 0 1,1 0.35,0 a0.175,0.175 0 1,1 -0.35,0z" transform="matrix(1,0,0,-1,4.7,2)" fill="rgb(255,255,255)" stroke="rgb(0,0,0)" stroke-width="0.0010cm" stroke-linecap="round" stroke-linejoin="round" shaper:cutDepth="0.5cm" /><path d="M2.375,0.8 a0.175,0.175 0 1,1 0.35,0 a0.175,0.175 0 1,1 -0.35,0z" transform="matrix(1,0,0,-1,4.7,2)" fill="rgb(255,255,255)" stroke="rgb(0,0,0)" stroke-width="0.0010cm" stroke-linecap="round" stroke-linejoin="round" shaper:cutDepth="0.5cm" /><path d="M0.775,0.8 a0.175,0.175 0 1,1 0.35,0 a0.175,0.175 0 1,1 -0.35,0z" transform="matrix(1,0,0,-1,4.7,2)" fill="rgb(255,255,255)" stroke="rgb(0,0,0)" stroke-width="0.0010cm" stroke-linecap="round" stroke-linejoin="round" shaper:cutDepth="0.5cm" /><path d="M-1.125,-0.8 a0.175,0.175 0 1,1 0.35,0 a0.175,0.175 0 1,1 -0.35,0z" transform="matrix(1,0,0,-1,4.7,2)" fill="rgb(255,255,255)" stroke="rgb(0,0,0)" stroke-width="0.0010cm" stroke-linecap="round" stroke-linejoin="round" shaper:cutDepth="0.5cm" /><path d="M-2.725,-0.8 a0.175,0.175 0 1,1 0.35,0 a0.175,0.175 0 1,1 -0.35,0z" transform="matrix(1,0,0,-1,4.7,2)" fill="rgb(255,255,255)" stroke="rgb(0,0,0)" stroke-width="0.0010cm" stroke-linecap="round" stroke-linejoin="round" shaper:cutDepth="0.5cm" /><path d="M-2.725,0.8 a0.175,0.175 0 1,1 0.35,0 a0.175,0.175 0 1,1 -0.35,0z" transform="matrix(1,0,0,-1,4.7,2)" fill="rgb(255,255,255)" stroke="rgb(0,0,0)" stroke-width="0.0010cm" stroke-linecap="round" stroke-linejoin="round" shaper:cutDepth="0.5cm" /><path d="M-1.125,0.8 a0.175,0.175 0 1,1 0.35,0 a0.175,0.175 0 1,1 -0.35,0z" transform="matrix(1,0,0,-1,4.7,2)" fill="rgb(255,255,255)" stroke="rgb(0,0,0)" stroke-width="0.0010cm" stroke-linecap="round" stroke-linejoin="round" shaper:cutDepth="0.5cm" /><path d="M-1.905,-0.95 a0.155,0.155 0 1,1 0.31,0 a0.155,0.155 0 1,1 -0.31,0z" transform="matrix(1,0,0,-1,4.7,2)" fill="rgb(255,255,255)" stroke="rgb(0,0,0)" stroke-width="0.0010cm" stroke-linecap="round" stroke-linejoin="round" shaper:cutDepth="0.5cm" /><path d="M0.645,0 a0.155,0.155 0 1,1 0.31,0 a0.155,0.155 0 1,1 -0.31,0z" transform="matrix(1,0,0,-1,4.7,2)" fill="rgb(255,255,255)" stroke="rgb(0,0,0)" stroke-width="0.0010cm" stroke-linecap="round" stroke-linejoin="round" shaper:cutDepth="0.5cm" /><path d="M-2.855,0 a0.155,0.155 0 1,1 0.31,0 a0.155,0.155 0 1,1 -0.31,0z" transform="matrix(1,0,0,-1,4.7,2)" fill="rgb(255,255,255)" stroke="rgb(0,0,0)" stroke-width="0.0010cm" stroke-linecap="round" stroke-linejoin="round" shaper:cutDepth="0.5cm" /><path d="M1.595,-0.95 a0.155,0.155 0 1,1 0.31,0 a0.155,0.155 0 1,1 -0.31,0z" transform="matrix(1,0,0,-1,4.7,2)" fill="rgb(255,255,255)" stroke="rgb(0,0,0)" stroke-width="0.0010cm" stroke-linecap="round" stroke-linejoin="round" shaper:cutDepth="0.5cm" /><path d="M2.375,-0.8 a0.175,0.175 0 1,1 0.35,0 a0.175,0.175 0 1,1 -0.35,0z" transform="matrix(1,0,0,-1,4.7,2)" fill="rgb(255,255,255)" stroke="rgb(0,0,0)" stroke-width="0.0010cm" stroke-linecap="round" stroke-linejoin="round" shaper:cutDepth="0.5cm" /><path d="M-0.955,0 a0.155,0.155 0 1,1 0.31,0 a0.155,0.155 0 1,1 -0.31,0z" transform="matrix(1,0,0,-1,4.7,2)" fill="rgb(255,255,255)" stroke="rgb(0,0,0)" stroke-width="0.0010cm" stroke-linecap="round" stroke-linejoin="round" shaper:cutDepth="0.5cm" /><path d="M2.545,0 a0.155,0.155 0 1,1 0.31,0 a0.155,0.155 0 1,1 -0.31,0z" transform="matrix(1,0,0,-1,4.7,2)" fill="rgb(255,255,255)" stroke="rgb(0,0,0)" stroke-width="0.0010cm" stroke-linecap="round" stroke-linejoin="round" shaper:cutDepth="0.5cm" /><path d="M-2.05,0 a0.3,0.3 0 1,1 0.6,0 a0.3,0.3 0 1,1 -0.6,0z" transform="matrix(1,0,0,-1,4.7,2)" fill="rgb(255,255,255)" stroke="rgb(0,0,0)" stroke-width="0.0010cm" stroke-linecap="round" stroke-linejoin="round" shaper:cutDepth="0.5cm" /><path d="M-1.905,0.95 a0.155,0.155 0 1,1 0.31,0 a0.155,0.155 0 1,1 -0.31,0z" transform="matrix(1,0,0,-1,4.7,2)" fill="rgb(255,255,255)" stroke="rgb(0,0,0)" stroke-width="0.0010cm" stroke-linecap="round" stroke-linejoin="round" shaper:cutDepth="0.5cm" /></svg>